<svg width="16" height="16" viewBox="0 0 16 16" fill="none" xmlns="http://www.w3.org/2000/svg">
<path d="M14.9283 9.19719L15.7417 8.40442C16.0861 8.06874 16.0861 7.52595 15.7417 7.19384L8.62285 0.251758C8.27845 -0.0839195 7.72155 -0.0839195 7.38081 0.251758L0.258301 7.19384C-0.0861003 7.52952 -0.0861003 8.07231 0.258301 8.40442L1.07167 9.19719C1.41974 9.53644 1.98763 9.52929 2.32837 9.1829L6.53446 4.87981L6.53446 15.143C6.53446 15.6179 6.92649 16 7.41379 16L8.58622 16C9.07351 16 9.46554 15.6179 9.46554 15.143L9.46554 4.87981L13.6716 9.1829C14.0124 9.53286 14.5803 9.54001 14.9283 9.19719Z" fill="#888585"/>
</svg>
