<svg width="153" height="152" viewBox="0 0 153 152" fill="none" xmlns="http://www.w3.org/2000/svg">
<path d="M115.793 78.8032C135.88 78.8032 152.164 95.087 152.164 115.174V151.545H79.4219L79.4219 78.8032L115.793 78.8032Z" fill="#E9885F"/>
<path d="M73.3589 115.174C73.3589 135.261 57.0751 151.545 36.9881 151.545C16.901 151.545 0.617188 135.261 0.617188 115.174C0.617188 95.087 16.901 78.8032 36.9881 78.8032C57.0751 78.8032 73.3589 95.087 73.3589 115.174Z" fill="#7858F7"/>
<path d="M115.792 2.61791e-06C135.879 3.07448e-06 152.163 16.2838 152.163 36.3709C152.163 56.458 135.879 72.7417 115.792 72.7417H0.617676L0.617679 0L115.792 2.61791e-06Z" fill="#FED851"/>
</svg>
