<svg width="165" height="36" viewBox="0 0 165 36" fill="none" xmlns="http://www.w3.org/2000/svg">
<path d="M27.3595 18.7207C32.1311 18.7207 35.9992 22.5888 35.9992 27.3604V36.0002H18.7197L18.7197 18.7207L27.3595 18.7207Z" fill="#E9885F"/>
<path d="M17.2795 27.3604C17.2795 32.132 13.4113 36.0002 8.63974 36.0002C3.86814 36.0002 0 32.132 0 27.3604C0 22.5888 3.86814 18.7207 8.63974 18.7207C13.4113 18.7207 17.2795 22.5888 17.2795 27.3604Z" fill="#7858F7"/>
<path d="M27.3592 6.21872e-07C32.1308 7.3033e-07 35.9989 3.86814 35.9989 8.63974C35.9989 13.4113 32.1308 17.2795 27.3592 17.2795H0L7.5531e-07 0L27.3592 6.21872e-07Z" fill="white"/>
<path d="M127.93 7.1006C128.52 7.66894 129.215 7.95311 130.016 7.95311C130.859 7.95311 131.564 7.66894 132.133 7.1006C132.723 6.51121 133.018 5.80604 133.018 4.9851C133.018 4.16416 132.723 3.46952 132.133 2.90118C131.564 2.31179 130.859 2.01709 130.016 2.01709C129.215 2.01709 128.52 2.31179 127.93 2.90118C127.34 3.46952 127.045 4.16416 127.045 4.9851C127.045 5.80604 127.34 6.51121 127.93 7.1006Z" fill="#2E2E2E"/>
<path d="M132.418 10.1002H127.645V25.8875H132.418V10.1002Z" fill="#2E2E2E"/>
<path d="M122.632 26.0769C120.778 26.0769 119.25 25.5717 118.049 24.5614C116.869 23.5299 116.279 22.0459 116.279 20.1093V14.2365H113.119V10.1002H116.279V5.71132H121.052V10.1002H125.477V14.2365H121.052V19.1305C121.052 20.0778 121.263 20.7619 121.684 21.1829C122.106 21.6039 122.79 21.8144 123.739 21.8144C124.455 21.8144 125.034 21.7196 125.477 21.5302V25.7612C124.782 25.9717 123.833 26.0769 122.632 26.0769Z" fill="#2E2E2E"/>
<path fill-rule="evenodd" clip-rule="evenodd" d="M69.9555 26.2348C67.5745 26.2348 65.5727 25.4875 63.9503 23.993C62.3489 22.4774 61.5482 20.4777 61.5482 17.9938C61.5482 15.6363 62.3384 13.6786 63.9187 12.121C65.499 10.5422 67.4797 9.75287 69.8607 9.75287C72.0731 9.75287 73.9379 10.4265 75.455 11.7736C76.9721 13.1208 77.7306 15.0153 77.7306 17.4571C77.7306 18.0675 77.699 18.6253 77.6358 19.1305H66.1627C66.2892 20.0357 66.7211 20.7303 67.4586 21.2144C68.1961 21.6775 69.0494 21.9091 70.0187 21.9091C70.8826 21.9091 71.6517 21.7407 72.3259 21.4039C73.0002 21.046 73.5059 20.6145 73.843 20.1093L77.3829 22.7616C76.6244 23.8351 75.6025 24.6876 74.3171 25.3191C73.0318 25.9296 71.5779 26.2348 69.9555 26.2348ZM66.2892 16.0046H72.9897C72.8 15.2258 72.3997 14.6364 71.7886 14.2365C71.1776 13.8365 70.4928 13.6365 69.7342 13.6365C68.9335 13.6365 68.2066 13.8365 67.5534 14.2365C66.9002 14.6154 66.4788 15.2047 66.2892 16.0046Z" fill="#2E2E2E"/>
<path fill-rule="evenodd" clip-rule="evenodd" d="M86.3322 26.2348C84.2883 26.2348 82.55 25.4244 81.1172 23.8036C79.7054 22.1827 78.9996 20.2462 78.9996 17.9938C78.9996 15.7415 79.7054 13.8049 81.1172 12.1841C82.55 10.5633 84.2883 9.75287 86.3322 9.75287C88.1443 9.75287 89.5771 10.3949 90.6306 11.6789V10.1002H95.4032V25.8875H90.6306V24.3088C89.5771 25.5928 88.1443 26.2348 86.3322 26.2348ZM84.7835 20.804C85.4578 21.5407 86.3322 21.9091 87.4068 21.9091C88.4814 21.9091 89.3453 21.5407 89.9985 20.804C90.6728 20.0672 91.0099 19.1305 91.0099 17.9938C91.0099 16.8572 90.6728 15.9204 89.9985 15.1837C89.3453 14.447 88.4814 14.0786 87.4068 14.0786C86.3322 14.0786 85.4578 14.447 84.7835 15.1837C84.1303 15.9204 83.8037 16.8572 83.8037 17.9938C83.8037 19.1305 84.1303 20.0672 84.7835 20.804Z" fill="#2E2E2E"/>
<path d="M99.2364 23.8983C100.859 25.456 102.85 26.2348 105.21 26.2348C106.832 26.2348 108.328 25.8138 109.698 24.9718C111.068 24.1298 112.09 23.0142 112.764 21.6249L108.592 19.4147C107.897 20.9934 106.769 21.7828 105.21 21.7828C104.199 21.7828 103.345 21.4249 102.65 20.7093C101.955 19.9936 101.607 19.0884 101.607 17.9938C101.607 16.8993 101.955 15.9941 102.65 15.2784C103.345 14.5627 104.199 14.2049 105.21 14.2049C106.769 14.2049 107.897 14.9943 108.592 16.573L112.764 14.3628C112.09 12.9735 111.068 11.8578 109.698 11.0159C108.328 10.1739 106.832 9.75287 105.21 9.75287C102.85 9.75287 100.859 10.5317 99.2364 12.0894C97.614 13.6471 96.8028 15.6152 96.8028 17.9938C96.8028 20.3725 97.614 22.3406 99.2364 23.8983Z" fill="#2E2E2E"/>
<path d="M137.329 25.8875V14.2365H134.169V10.1002H137.329V8.36359C137.329 6.42701 137.93 4.89038 139.131 3.75369C140.353 2.59596 141.87 2.01709 143.682 2.01709C144.82 2.01709 145.768 2.13286 146.527 2.36441V6.56383C146.084 6.37438 145.515 6.27966 144.82 6.27966C143.851 6.27966 143.155 6.49016 142.734 6.91115C142.312 7.33215 142.102 8.01626 142.102 8.9635V10.1002H151.736L155.655 19.8567L159.543 10.1002H164.79L154.96 32.4866H149.808L153.095 24.9718L146.527 10.1125V14.2365H142.102V25.8875H137.329Z" fill="#2E2E2E"/>
<path d="M50.3994 10.1178V25.9051H55.172V18.4219C55.172 17.2641 55.4459 16.338 55.9937 15.6433C56.5626 14.9276 57.3528 14.5698 58.3642 14.5698C59.0385 14.5698 59.7443 14.6961 60.4818 14.9487V10.1178C59.9972 9.99146 59.4809 9.92831 58.9331 9.92831C58.0692 9.92831 57.2896 10.1809 56.5942 10.6861C55.8989 11.1702 55.4248 11.7702 55.172 12.4859V10.1178H50.3994Z" fill="#2E2E2E"/>
</svg>
