<svg width="23" height="24" viewBox="0 0 23 24" fill="none" xmlns="http://www.w3.org/2000/svg">
<path d="M11.1966 2.81137C14.1832 2.81137 14.5338 2.82346 15.7188 2.88395C16.807 2.93235 17.3995 3.11381 17.7985 3.27109C18.3184 3.47675 18.6933 3.71871 19.0923 4.10584C19.4792 4.49298 19.7331 4.86801 19.9266 5.40032C20.0717 5.79955 20.2652 6.39235 20.3135 7.48116C20.3619 8.66676 20.3861 9.0176 20.3861 12.0058C20.3861 14.994 20.374 15.3448 20.3135 16.5304C20.2652 17.6192 20.0838 18.212 19.9266 18.6112C19.721 19.1314 19.4792 19.5065 19.0923 19.9057C18.7054 20.2928 18.3305 20.5469 17.7985 20.7405C17.3995 20.8856 16.807 21.0792 15.7188 21.1276C14.5338 21.176 14.1832 21.2002 11.1966 21.2002C8.21005 21.2002 7.8594 21.1881 6.67444 21.1276C5.58622 21.0792 4.99374 20.8977 4.59473 20.7405C4.0748 20.5348 3.69996 20.2928 3.30095 19.9057C2.91402 19.5186 2.6601 19.1435 2.46664 18.6112C2.32155 18.212 2.12808 17.6192 2.07972 16.5304C2.03135 15.3448 2.00717 14.994 2.00717 12.0058C2.00717 9.0176 2.01926 8.66676 2.07972 7.48116C2.12808 6.39235 2.30945 5.79955 2.46664 5.40032C2.6722 4.88011 2.91402 4.50507 3.30095 4.10584C3.68787 3.70661 4.06271 3.46465 4.59473 3.25899C4.99374 3.11381 5.58622 2.92025 6.67444 2.87186C7.8594 2.82346 8.21005 2.81137 11.1966 2.81137ZM11.1966 0.791016C8.16168 0.791016 7.77476 0.803114 6.57771 0.863603C5.39276 0.911995 4.57054 1.10556 3.85715 1.38381C3.11958 1.66207 2.50292 2.0492 1.88626 2.67829C1.2575 3.29528 0.87058 3.92437 0.592478 4.65025C0.314376 5.36403 0.120914 6.18668 0.0725483 7.37228C0.0120914 8.56997 0 8.95711 0 11.9937C0 15.0303 0.0120914 15.4174 0.0725483 16.6151C0.120914 17.8128 0.314376 18.6233 0.592478 19.3371C0.882671 20.0751 1.2696 20.6921 1.88626 21.3212C2.50292 21.9382 3.13167 22.3253 3.86924 22.6156C4.58263 22.8939 5.39276 23.0875 6.5898 23.1359C7.78685 23.1842 8.16169 23.2084 11.2087 23.2084C14.2557 23.2084 14.6306 23.1963 15.8276 23.1359C17.0247 23.0875 17.8348 22.8939 18.5482 22.6156C19.2858 22.3253 19.9145 21.9382 20.5312 21.3212C21.1478 20.7042 21.5348 20.0751 21.8249 19.3371C22.1031 18.6233 22.2965 17.8128 22.3449 16.6151C22.3932 15.4174 22.4174 15.0424 22.4174 11.9937C22.4174 8.94501 22.4053 8.56997 22.3449 7.37228C22.2965 6.17459 22.1031 5.36403 21.8249 4.65025C21.5348 3.91228 21.1478 3.29528 20.5312 2.66619C19.9145 2.0371 19.2858 1.66207 18.5482 1.37172C17.8348 1.09346 17.0247 0.899897 15.8276 0.851505C14.6185 0.803114 14.2437 0.791016 11.1966 0.791016ZM11.1966 6.24717C8.02868 6.24717 5.44112 8.82403 5.44112 12.0058C5.44112 15.1875 8.01659 17.7644 11.1966 17.7644C14.3767 17.7644 16.9521 15.1875 16.9521 12.0058C16.9521 8.82403 14.3767 6.24717 11.1966 6.24717ZM11.1966 15.7319C9.129 15.7319 7.46038 14.0624 7.46038 11.9937C7.46038 9.92494 9.129 8.25543 11.1966 8.25543C13.2642 8.25543 14.9329 9.92494 14.9329 11.9937C14.9329 14.0624 13.2642 15.7319 11.1966 15.7319ZM17.1819 7.36018C17.9194 7.36018 18.524 6.75529 18.524 6.01731C18.524 5.27934 17.9194 4.67444 17.1819 4.67444C16.4443 4.67444 15.8397 5.26724 15.8397 6.01731C15.8397 6.76738 16.4322 7.36018 17.1819 7.36018Z" fill="#2E2E2E"/>
</svg>
