<svg width="24" height="24" viewBox="0 0 24 24" fill="none" xmlns="http://www.w3.org/2000/svg">
<path d="M22.1385 0.000976562H1.79501C0.797784 0.000976562 0 0.800977 0 1.73431V22.2676C0 23.201 0.797784 24.001 1.79501 24.001H22.205C23.2022 24.001 24 23.201 24 22.2676V1.73431C23.9335 0.800977 23.1357 0.000976562 22.1385 0.000976562ZM7.11357 20.4676H3.52355V9.00098H7.04709V20.4676H7.11357ZM5.31856 7.40098C4.18837 7.40098 3.25762 6.46764 3.25762 5.33431C3.25762 4.20098 4.18837 3.33431 5.31856 3.33431C6.44875 3.33431 7.3795 4.26764 7.3795 5.40098C7.3795 6.53431 6.44875 7.40098 5.31856 7.40098ZM20.41 20.4676H16.8864V14.8676C16.8864 13.5343 16.8864 11.801 15.0249 11.801C13.1634 11.801 12.8975 13.2676 12.8975 14.7343V20.401H9.30748V9.00098H12.6981V10.5343H12.7645C13.2299 9.60098 14.4266 8.66764 16.1551 8.66764C19.7452 8.66764 20.41 11.0676 20.41 14.1343V20.4676Z" fill="#2E2E2E"/>
</svg>
