<svg width="38" height="38" viewBox="0 0 38 38" fill="none" xmlns="http://www.w3.org/2000/svg">
<path d="M1.1875 2.375L4.75 2.375L13.6562 2.375L22.5625 2.375C29.8062 2.73125 35.625 8.66875 35.625 16.0312C35.625 23.3937 29.8062 29.3312 22.5625 29.6875L13.6562 29.6875L4.75 29.6875L4.0375 29.6875L7.95625 25.7687C8.43125 25.2937 8.43125 24.5812 7.95625 24.1062C7.48125 23.6312 6.76875 23.6312 6.29375 24.1062L0.356249 30.0437C0.118746 30.2812 -1.33921e-06 30.6375 -1.34959e-06 30.875C-1.36516e-06 31.2312 0.118746 31.4687 0.356249 31.7062L6.29375 37.6437C6.76875 38.1188 7.48125 38.1188 7.95625 37.6437C8.43125 37.1687 8.43125 36.4562 7.95625 35.9812L4.0375 32.0625L22.5625 32.0625C22.6812 32.0625 22.6812 32.0625 22.8 32.0625C31.2312 31.5875 38 24.5812 38 16.0312C38 7.125 30.875 -3.11444e-07 21.9688 -7.00748e-07C21.85 -7.05939e-07 21.6125 -7.1632e-07 21.4937 -7.21511e-07L21.375 -7.26702e-07L1.1875 -1.60913e-06C0.59375 -1.63508e-06 -2.07629e-08 0.474998 -5.19073e-08 1.1875C-8.30516e-08 1.9 0.59375 2.375 1.1875 2.375Z" fill="#05003E"/>
</svg>
