<svg width="25" height="20" viewBox="0 0 25 20" fill="none" xmlns="http://www.w3.org/2000/svg">
<path d="M7.83124 19.9629C17.2267 19.9629 22.3678 12.2943 22.3678 5.65526C22.3678 5.43952 22.3678 5.22377 22.3579 5.00803C23.3542 4.30196 24.221 3.40957 24.9085 2.3995C23.9919 2.80157 23.0055 3.06634 21.9693 3.19383C23.0254 2.57602 23.8325 1.58556 24.221 0.40878C23.2347 0.987364 22.1387 1.39924 20.973 1.62479C20.0464 0.644136 18.7113 0.0361328 17.2467 0.0361328C14.427 0.0361328 12.1354 2.29163 12.1354 5.06687C12.1354 5.45913 12.1852 5.84158 12.265 6.21423C8.02054 5.99849 4.25437 3.99796 1.73363 0.957944C1.29524 1.70324 1.04616 2.56621 1.04616 3.48802C1.04616 5.23358 1.95283 6.7732 3.31781 7.6754C2.48089 7.64598 1.69378 7.42043 0.996341 7.04778C0.996341 7.06739 0.996341 7.08701 0.996341 7.11643C0.996341 9.54844 2.75986 11.5882 5.0913 12.0491C4.66287 12.1668 4.21452 12.2256 3.74624 12.2256C3.41745 12.2256 3.09862 12.1962 2.78975 12.1374C3.43737 14.1379 5.33042 15.5892 7.56222 15.6285C5.80867 16.9818 3.60675 17.7859 1.21554 17.7859C0.807036 17.7859 0.398536 17.7663 0 17.7173C2.26169 19.1294 4.95181 19.9629 7.83124 19.9629Z" fill="#2E2E2E"/>
</svg>
